<?xml version="1.0" standalone="no"?>
<!DOCTYPE svg PUBLIC "-//W3C//DTD SVG 20010904//EN"
 "http://www.w3.org/TR/2001/REC-SVG-20010904/DTD/svg10.dtd">
<svg version="1.0" xmlns="http://www.w3.org/2000/svg"
 width="500.000000pt" height="500.000000pt" viewBox="0 0 500.000000 500.000000"
 preserveAspectRatio="xMidYMid meet">
<metadata>
Created by potrace 1.14, written by Peter Selinger 2001-2017
</metadata>
<g transform="translate(0.000000,500.000000) scale(0.100000,-0.100000)"
fill="#000000" stroke="none">
<path d="M1425 3632 c-118 -57 -181 -162 -173 -290 4 -60 35 -142 302 -797
164 -401 308 -749 322 -772 13 -23 43 -57 65 -77 118 -101 321 -84 423 35 42
50 55 82 132 334 31 105 60 193 64 198 3 4 37 -88 74 -205 37 -117 76 -231 86
-254 25 -58 75 -111 134 -142 44 -23 63 -27 141 -27 75 0 97 4 135 23 60 32
107 77 135 132 45 88 606 1472 616 1520 19 87 -16 195 -85 263 -100 100 -283
115 -395 33 -68 -50 -85 -89 -246 -561 -86 -253 -160 -463 -164 -468 -4 -4
-50 108 -102 250 -52 143 -107 278 -124 302 -45 65 -111 96 -205 96 -61 0 -85
-5 -125 -26 -80 -41 -101 -78 -200 -362 -49 -141 -92 -257 -95 -257 -3 0 -70
191 -149 424 -79 233 -154 450 -167 481 -45 111 -127 166 -259 172 -72 4 -86
1 -140 -25z"/>
</g>
</svg>
